<mxfile host="app.diagrams.net" modified="2024-02-17T23:33:27.027Z" agent="Mozilla/5.0 (Windows NT 10.0; Win64; x64) AppleWebKit/537.36 (KHTML, like Gecko) Chrome/121.0.0.0 Safari/537.36" etag="gZ0DDyNmhcti_SyADSia" version="23.1.1" type="device">
  <diagram name="Page-1" id="90a13364-a465-7bf4-72fc-28e22215d7a0">
    <mxGraphModel dx="1077" dy="564" grid="1" gridSize="10" guides="1" tooltips="1" connect="1" arrows="1" fold="1" page="1" pageScale="1.5" pageWidth="1169" pageHeight="826" background="none" math="0" shadow="0">
      <root>
        <mxCell id="0" style=";html=1;" />
        <mxCell id="1" style=";html=1;" parent="0" />
        <mxCell id="KjshtoLH_Oc-YXaweBSU-4" value="Inverted Pendulum Simulation" style="swimlane;" vertex="1" parent="1">
          <mxGeometry x="280" y="580" width="200" height="240" as="geometry" />
        </mxCell>
        <mxCell id="KjshtoLH_Oc-YXaweBSU-45" style="edgeStyle=orthogonalEdgeStyle;rounded=0;orthogonalLoop=1;jettySize=auto;html=1;entryX=0.5;entryY=1;entryDx=0;entryDy=0;" edge="1" parent="KjshtoLH_Oc-YXaweBSU-4" source="KjshtoLH_Oc-YXaweBSU-7" target="KjshtoLH_Oc-YXaweBSU-14">
          <mxGeometry relative="1" as="geometry" />
        </mxCell>
        <mxCell id="KjshtoLH_Oc-YXaweBSU-7" value="Controller" style="rounded=0;whiteSpace=wrap;html=1;" vertex="1" parent="KjshtoLH_Oc-YXaweBSU-4">
          <mxGeometry x="40" y="140" width="120" height="60" as="geometry" />
        </mxCell>
        <mxCell id="KjshtoLH_Oc-YXaweBSU-14" value="State Variables" style="rounded=0;whiteSpace=wrap;html=1;" vertex="1" parent="KjshtoLH_Oc-YXaweBSU-4">
          <mxGeometry x="40" y="50" width="120" height="60" as="geometry" />
        </mxCell>
        <mxCell id="KjshtoLH_Oc-YXaweBSU-8" value="PC" style="swimlane;" vertex="1" parent="1">
          <mxGeometry x="550" y="580" width="200" height="240" as="geometry" />
        </mxCell>
        <mxCell id="KjshtoLH_Oc-YXaweBSU-9" value="Dataset" style="rounded=0;whiteSpace=wrap;html=1;" vertex="1" parent="KjshtoLH_Oc-YXaweBSU-8">
          <mxGeometry x="40" y="50" width="120" height="60" as="geometry" />
        </mxCell>
        <mxCell id="KjshtoLH_Oc-YXaweBSU-12" value="Model Config" style="rounded=0;whiteSpace=wrap;html=1;" vertex="1" parent="KjshtoLH_Oc-YXaweBSU-8">
          <mxGeometry x="40" y="140" width="120" height="60" as="geometry" />
        </mxCell>
        <mxCell id="KjshtoLH_Oc-YXaweBSU-10" value="Python" style="swimlane;" vertex="1" parent="1">
          <mxGeometry x="777" y="580" width="200" height="240" as="geometry" />
        </mxCell>
        <mxCell id="KjshtoLH_Oc-YXaweBSU-11" value="Build Models" style="rounded=0;whiteSpace=wrap;html=1;" vertex="1" parent="KjshtoLH_Oc-YXaweBSU-10">
          <mxGeometry x="40" y="50" width="120" height="60" as="geometry" />
        </mxCell>
        <mxCell id="KjshtoLH_Oc-YXaweBSU-13" value="Generate Predictions" style="rounded=0;whiteSpace=wrap;html=1;" vertex="1" parent="KjshtoLH_Oc-YXaweBSU-10">
          <mxGeometry x="40" y="140" width="120" height="60" as="geometry" />
        </mxCell>
        <mxCell id="KjshtoLH_Oc-YXaweBSU-16" style="edgeStyle=orthogonalEdgeStyle;rounded=0;orthogonalLoop=1;jettySize=auto;html=1;entryX=0;entryY=0.5;entryDx=0;entryDy=0;" edge="1" parent="1" source="KjshtoLH_Oc-YXaweBSU-14" target="KjshtoLH_Oc-YXaweBSU-9">
          <mxGeometry relative="1" as="geometry" />
        </mxCell>
        <mxCell id="KjshtoLH_Oc-YXaweBSU-17" style="edgeStyle=orthogonalEdgeStyle;rounded=0;orthogonalLoop=1;jettySize=auto;html=1;entryX=0;entryY=0.5;entryDx=0;entryDy=0;" edge="1" parent="1" source="KjshtoLH_Oc-YXaweBSU-9" target="KjshtoLH_Oc-YXaweBSU-11">
          <mxGeometry relative="1" as="geometry" />
        </mxCell>
        <mxCell id="KjshtoLH_Oc-YXaweBSU-18" style="edgeStyle=orthogonalEdgeStyle;rounded=0;orthogonalLoop=1;jettySize=auto;html=1;exitX=0;exitY=0.75;exitDx=0;exitDy=0;entryX=1;entryY=0.25;entryDx=0;entryDy=0;" edge="1" parent="1" source="KjshtoLH_Oc-YXaweBSU-11" target="KjshtoLH_Oc-YXaweBSU-12">
          <mxGeometry relative="1" as="geometry" />
        </mxCell>
        <mxCell id="KjshtoLH_Oc-YXaweBSU-19" style="edgeStyle=orthogonalEdgeStyle;rounded=0;orthogonalLoop=1;jettySize=auto;html=1;entryX=0.358;entryY=1;entryDx=0;entryDy=0;entryPerimeter=0;" edge="1" parent="1" source="KjshtoLH_Oc-YXaweBSU-7" target="KjshtoLH_Oc-YXaweBSU-13">
          <mxGeometry relative="1" as="geometry">
            <Array as="points">
              <mxPoint x="510" y="750" />
              <mxPoint x="510" y="860" />
              <mxPoint x="860" y="860" />
            </Array>
          </mxGeometry>
        </mxCell>
        <mxCell id="KjshtoLH_Oc-YXaweBSU-20" style="edgeStyle=orthogonalEdgeStyle;rounded=0;orthogonalLoop=1;jettySize=auto;html=1;entryX=0;entryY=0.5;entryDx=0;entryDy=0;" edge="1" parent="1" source="KjshtoLH_Oc-YXaweBSU-12" target="KjshtoLH_Oc-YXaweBSU-13">
          <mxGeometry relative="1" as="geometry" />
        </mxCell>
      </root>
    </mxGraphModel>
  </diagram>
</mxfile>
